<svg width="682" height="682" xmlns="http://www.w3.org/2000/svg" style="vector-effect: non-scaling-stroke;"
     stroke="null">
    <metadata style="vector-effect: non-scaling-stroke;" stroke="null" id="metadata8">image/svg+xml</metadata>
    <defs style="vector-effect: non-scaling-stroke;" stroke="null">
        <clipPath style="vector-effect: non-scaling-stroke;" stroke="null" clipPathUnits="userSpaceOnUse"
                  id="clipPath18">
            <path style="vector-effect: non-scaling-stroke;" stroke="null" clip-rule="evenodd"
                  d="m0,0.00012l960,0l0,540l-960,0l0,-540z" id="path16"/>
        </clipPath>
        <clipPath style="vector-effect: non-scaling-stroke;" stroke="null" clipPathUnits="userSpaceOnUse"
                  id="clipPath28">
            <path style="vector-effect: non-scaling-stroke;" stroke="null" clip-rule="evenodd"
                  d="m-279.646716,609.646747l960,0l0,-539.99994l-960,0" id="path26"/>
        </clipPath>
        <clipPath style="vector-effect: non-scaling-stroke;" stroke="null" clipPathUnits="userSpaceOnUse"
                  id="clipPath38">
            <path style="vector-effect: non-scaling-stroke;" stroke="null" clip-rule="evenodd"
                  d="m-279.646716,609.646747l960,0l0,-539.99994l-960,0" id="path36"/>
        </clipPath>
        <clipPath style="vector-effect: non-scaling-stroke;" stroke="null" clipPathUnits="userSpaceOnUse"
                  id="clipPath48">
            <path style="vector-effect: non-scaling-stroke;" stroke="null" clip-rule="evenodd"
                  d="m-279.646716,609.646747l960,0l0,-539.99994l-960,0.00006" id="path46"/>
        </clipPath>
        <clipPath style="vector-effect: non-scaling-stroke;" stroke="null" clipPathUnits="userSpaceOnUse"
                  id="clipPath58">
            <path style="vector-effect: non-scaling-stroke;" stroke="null" clip-rule="evenodd"
                  d="m-279.646716,609.646747l960,0l0,-540.00006l-960.00006,0.00006" id="path56"/>
        </clipPath>
        <clipPath style="vector-effect: non-scaling-stroke;" stroke="null" clipPathUnits="userSpaceOnUse"
                  id="clipPath68">
            <path style="vector-effect: non-scaling-stroke;" stroke="null" clip-rule="evenodd"
                  d="m-279.646716,609.646747l960,0l0,-540.00006l-960.00006,0.00006" id="path66"/>
        </clipPath>
        <clipPath style="vector-effect: non-scaling-stroke;" stroke="null" clipPathUnits="userSpaceOnUse"
                  id="clipPath78">
            <path style="vector-effect: non-scaling-stroke;" stroke="null" clip-rule="evenodd"
                  d="m-279.646716,609.646747l960,0l0,-540l-960.00003,0" id="path76"/>
        </clipPath>
        <clipPath style="vector-effect: non-scaling-stroke;" stroke="null" clipPathUnits="userSpaceOnUse"
                  id="clipPath88">
            <path style="vector-effect: non-scaling-stroke;" stroke="null" clip-rule="evenodd"
                  d="m-279.646716,609.646747l960,0l0,-540l-960.00003,0" id="path86"/>
        </clipPath>
        <clipPath style="vector-effect: non-scaling-stroke;" stroke="null" clipPathUnits="userSpaceOnUse"
                  id="clipPath98">
            <path style="vector-effect: non-scaling-stroke;" stroke="null" clip-rule="evenodd"
                  d="m-279.646716,609.646747l960,0l0,-539.99994l-960,0.00006" id="path96"/>
        </clipPath>
        <clipPath style="vector-effect: non-scaling-stroke;" stroke="null" clipPathUnits="userSpaceOnUse"
                  id="clipPath108">
            <path style="vector-effect: non-scaling-stroke;" stroke="null" clip-rule="evenodd"
                  d="m-279.646716,609.646747l960,0l0,-539.99994l-960,0.00006" id="path106"/>
        </clipPath>
        <clipPath style="vector-effect: non-scaling-stroke;" stroke="null" clipPathUnits="userSpaceOnUse"
                  id="clipPath118">
            <path style="vector-effect: non-scaling-stroke;" stroke="null" clip-rule="evenodd"
                  d="m-279.646776,609.646747l960.00006,0l0,-539.99994l-960.00006,0" id="path116"/>
        </clipPath>
        <clipPath style="vector-effect: non-scaling-stroke;" stroke="null" clipPathUnits="userSpaceOnUse"
                  id="clipPath128">
            <path style="vector-effect: non-scaling-stroke;" stroke="null" clip-rule="evenodd"
                  d="m-279.646776,609.646747l960.00006,0l0,-539.99994l-960.00006,0" id="path126"/>
        </clipPath>
        <clipPath style="vector-effect: non-scaling-stroke;" stroke="null" clipPathUnits="userSpaceOnUse"
                  id="clipPath138">
            <path style="vector-effect: non-scaling-stroke;" stroke="null" clip-rule="evenodd"
                  d="m-279.646776,609.646747l960.00006,0l0,-539.99994l-960.00006,0" id="path136"/>
        </clipPath>
        <clipPath style="vector-effect: non-scaling-stroke;" stroke="null" clipPathUnits="userSpaceOnUse"
                  id="clipPath148">
            <path style="vector-effect: non-scaling-stroke;" stroke="null" clip-rule="evenodd"
                  d="m-279.646776,609.646747l960.00006,0l0,-539.99994l-960,0" id="path146"/>
        </clipPath>
        <clipPath style="vector-effect: non-scaling-stroke;" stroke="null" clipPathUnits="userSpaceOnUse"
                  id="clipPath158">
            <path style="vector-effect: non-scaling-stroke;" stroke="null" clip-rule="evenodd"
                  d="m-279.646776,609.646747l960.00006,0l0,-539.99994l-960.00006,-0.00006" id="path156"/>
        </clipPath>
        <clipPath style="vector-effect: non-scaling-stroke;" stroke="null" clipPathUnits="userSpaceOnUse"
                  id="clipPath168">
            <path style="vector-effect: non-scaling-stroke;" stroke="null" clip-rule="evenodd"
                  d="m-279.646776,609.646747l960.00006,0l0,-539.99994l-960.00006,-0.00006" id="path166"/>
        </clipPath>
        <clipPath style="vector-effect: non-scaling-stroke;" stroke="null" clipPathUnits="userSpaceOnUse"
                  id="clipPath178">
            <path style="vector-effect: non-scaling-stroke;" stroke="null" clip-rule="evenodd"
                  d="m-279.646776,609.646747l960.00006,0l0,-540l-960,0" id="path176"/>
        </clipPath>
        <clipPath style="vector-effect: non-scaling-stroke;" stroke="null" clipPathUnits="userSpaceOnUse"
                  id="clipPath188">
            <path style="vector-effect: non-scaling-stroke;" stroke="null" clip-rule="evenodd"
                  d="m-279.646776,609.646747l960.00006,0l0,-539.99994l-960.00006,0" id="path186"/>
        </clipPath>
        <clipPath style="vector-effect: non-scaling-stroke;" stroke="null" clipPathUnits="userSpaceOnUse"
                  id="clipPath198">
            <path style="vector-effect: non-scaling-stroke;" stroke="null" clip-rule="evenodd"
                  d="m-279.646776,609.646747l960.00006,0l0,-539.99994l-960.00006,0" id="path196"/>
        </clipPath>
        <clipPath style="vector-effect: non-scaling-stroke;" stroke="null" clipPathUnits="userSpaceOnUse"
                  id="clipPath208">
            <path style="vector-effect: non-scaling-stroke;" stroke="null" clip-rule="evenodd"
                  d="m-279.646716,609.646747l960,0l0,-540l-960,0.00006" id="path206"/>
        </clipPath>
    </defs>
    <g stroke="null">
        <title stroke="null">background</title>
        <rect transform="matrix(1,0,0,1,0,0) matrix(1,0,0,1,0,0) matrix(1,0,0,1,0,0) " stroke="null" fill="none"
              id="canvas_background" height="684" width="684" y="-1" x="-1"/>
    </g>
    <g stroke="null">
        <title stroke="null">Logo</title>
        <g stroke="null" id="svg_1">
            <g stroke="null"
               transform="matrix(1.6203837128707064,0,0,-1.6203837128707064,-0.000012045114454804721,875.0072157804075) "
               id="g22">
                <g stroke="null" id="g24" clip-path="url(#clipPath28)">
                    <path stroke="null" fill="#252a39" fill-rule="evenodd"
                          d="m368.253986,466.676044c75.97,-86.92 67.09,-218.97 -19.83,-294.93c-86.92,-75.97 -218.97,-67.09 -294.93,19.83c-75.97,86.92 -67.09,218.97 19.83,294.93c86.92,75.97 218.97,67.09 294.93,-19.83z"
                          id="path30"/>
                </g>
            </g>
            <g stroke="null"
               transform="matrix(1.6203837128707064,0,0,-1.6203837128707064,-0.000012045114454804721,875.0072157804075) "
               id="g32">
                <g stroke="null" id="g34" clip-path="url(#clipPath38)">
                    <path stroke="#252a39" fill="none" stroke-miterlimit="10"
                          d="m368.253986,466.676044c75.97,-86.92 67.09,-218.97 -19.83,-294.93c-86.92,-75.97 -218.97,-67.09 -294.93,19.83c-75.97,86.92 -67.09,218.97 19.83,294.93c86.92,75.97 218.97,67.09 294.93,-19.83z"
                          id="path40"/>
                </g>
            </g>
            <g stroke="null"
               transform="matrix(1.6203837128707064,0,0,-1.6203837128707064,-0.000012045114454804721,875.0072157804075) "
               id="g42">
                <g stroke="null" id="g44" clip-path="url(#clipPath48)">
                    <path stroke="null" fill="#ffffff" fill-rule="evenodd"
                          d="m385.153986,387.416044l-158.36,-138.41l-93.32,106.77l158.37,138.41l8.7,-9.96l-142.57,-124.61l74.45,-85.19l142.58,124.61l10.15,-11.62z"
                          id="path50"/>
                </g>
            </g>
            <g stroke="null"
               transform="matrix(1.6203837128707064,0,0,-1.6203837128707064,-0.000012045114454804721,875.0072157804075) "
               id="g52">
                <g stroke="null" id="g54" clip-path="url(#clipPath58)">
                    <path stroke="null" fill="#ffffff" fill-rule="evenodd"
                          d="m220.243986,243.496044l-150.7,-37.84l58.05,143.85l92.65,-106.01z" id="path60"/>
                </g>
            </g>
            <g stroke="null"
               transform="matrix(1.6203837128707064,0,0,-1.6203837128707064,-0.000012045114454804721,875.0072157804075) "
               id="g62">
                <g stroke="null" id="g64" clip-path="url(#clipPath68)">
                    <path stroke="#ffffff" fill="none" stroke-miterlimit="10"
                          d="m220.243986,243.496044l-150.7,-37.84l58.05,143.85l92.65,-106.01z" id="path70"/>
                </g>
            </g>
            <g stroke="null"
               transform="matrix(1.6203837128707064,0,0,-1.6203837128707064,-0.000012045114454804721,875.0072157804075) "
               id="g72">
                <g stroke="null" id="g74" clip-path="url(#clipPath78)">
                    <path stroke="null" fill="#252a39" fill-rule="evenodd"
                          d="m192.973986,250.606044l-103.73,-27.57l41.21,99.11l62.52,-71.54z" id="path80"/>
                </g>
            </g>
            <g stroke="null"
               transform="matrix(1.6203837128707064,0,0,-1.6203837128707064,-0.000012045114454804721,875.0072157804075) "
               id="g82">
                <g stroke="null" id="g84" clip-path="url(#clipPath88)">
                    <path stroke="#000000" fill="none" stroke-miterlimit="10"
                          d="m192.973986,250.606044l-103.73,-27.57l41.21,99.11l62.52,-71.54z" id="path90"/>
                </g>
            </g>
            <g stroke="null"
               transform="matrix(1.6203837128707064,0,0,-1.6203837128707064,-0.000012045114454804721,875.0072157804075) "
               id="g92">
                <g stroke="null" id="g94" clip-path="url(#clipPath98)">
                    <path stroke="null" fill="#ffffff" fill-rule="evenodd"
                          d="m259.883986,289.826044l-12.95,-11.31l-65.9,75.41c-2.85,3.26 -2.52,8.22 0.74,11.07l12.95,11.31l65.91,-75.41c2.85,-3.26 2.51,-8.22 -0.75,-11.07z"
                          id="path100"/>
                </g>
            </g>
            <g stroke="null"
               transform="matrix(1.6203837128707064,0,0,-1.6203837128707064,-0.000012045114454804721,875.0072157804075) "
               id="g102">
                <g stroke="null" id="g104" clip-path="url(#clipPath108)">
                    <path stroke="#ffffff" fill="none" stroke-miterlimit="10"
                          d="m259.883986,289.826044l-12.95,-11.31l-65.9,75.41c-2.85,3.26 -2.52,8.22 0.74,11.07l12.95,11.31l65.91,-75.41c2.85,-3.26 2.51,-8.22 -0.75,-11.07z"
                          id="path110"/>
                </g>
            </g>
            <g stroke="null"
               transform="matrix(1.6203837128707064,0,0,-1.6203837128707064,-0.000012045114454804721,875.0072157804075) "
               id="g112">
                <g stroke="null" id="g114" clip-path="url(#clipPath118)">
                    <path stroke="#252a39" fill="none" stroke-width="4.5" stroke-miterlimit="10"
                          d="m247.663986,296.706044l-55.6,63.62" id="path120"/>
                </g>
            </g>
            <g stroke="null"
               transform="matrix(1.6203837128707064,0,0,-1.6203837128707064,-0.000012045114454804721,875.0072157804075) "
               id="g122">
                <g stroke="null" id="g124" clip-path="url(#clipPath128)">
                    <path stroke="null" fill="#ffffff" fill-rule="evenodd"
                          d="m290.643986,316.696044l-12.95,-11.31l-65.91,75.41c-2.85,3.26 -2.52,8.22 0.75,11.07l12.94,11.32l65.91,-75.42c2.85,-3.26 2.52,-8.22 -0.74,-11.07z"
                          id="path130"/>
                </g>
            </g>
            <g stroke="null"
               transform="matrix(1.6203837128707064,0,0,-1.6203837128707064,-0.000012045114454804721,875.0072157804075) "
               id="g132">
                <g stroke="null" id="g134" clip-path="url(#clipPath138)">
                    <path stroke="#ffffff" fill="none" stroke-miterlimit="10"
                          d="m290.643986,316.696044l-12.95,-11.31l-65.91,75.41c-2.85,3.26 -2.52,8.22 0.75,11.07l12.94,11.32l65.91,-75.42c2.85,-3.26 2.52,-8.22 -0.74,-11.07z"
                          id="path140"/>
                </g>
            </g>
            <g stroke="null"
               transform="matrix(1.6203837128707064,0,0,-1.6203837128707064,-0.000012045114454804721,875.0072157804075) "
               id="g142">
                <g stroke="null" id="g144" clip-path="url(#clipPath148)">
                    <path stroke="#252a39" fill="none" stroke-width="4.5" stroke-miterlimit="10"
                          d="m278.423986,323.576044l-55.6,63.62" id="path150"/>
                </g>
            </g>
            <g stroke="null"
               transform="matrix(1.6203837128707064,0,0,-1.6203837128707064,-0.000012045114454804721,875.0072157804075) "
               id="g152">
                <g stroke="null" id="g154" clip-path="url(#clipPath158)">
                    <path stroke="null" fill="#ffffff" fill-rule="evenodd"
                          d="m324.413986,344.186044l-12.95,-11.32l-65.91,75.42c-2.85,3.26 -2.52,8.22 0.75,11.07l12.94,11.31l65.91,-75.41c2.85,-3.26 2.52,-8.22 -0.74,-11.07z"
                          id="path160"/>
                </g>
            </g>
            <g stroke="null"
               transform="matrix(1.6203837128707064,0,0,-1.6203837128707064,-0.000012045114454804721,875.0072157804075) "
               id="g162">
                <g stroke="null" id="g164" clip-path="url(#clipPath168)">
                    <path stroke="#ffffff" fill="none" stroke-miterlimit="10"
                          d="m324.413986,344.186044l-12.95,-11.32l-65.91,75.42c-2.85,3.26 -2.52,8.22 0.75,11.07l12.94,11.31l65.91,-75.41c2.85,-3.26 2.52,-8.22 -0.74,-11.07z"
                          id="path170"/>
                </g>
            </g>
            <g stroke="null"
               transform="matrix(1.6203837128707064,0,0,-1.6203837128707064,-0.000012045114454804721,875.0072157804075) "
               id="g172">
                <g stroke="null" id="g174" clip-path="url(#clipPath178)">
                    <path stroke="#252a39" fill="none" stroke-width="4.5" stroke-miterlimit="10"
                          d="m312.183986,351.066044l-55.6,63.62" id="path180"/>
                </g>
            </g>
            <g stroke="null"
               transform="matrix(1.6203837128707064,0,0,-1.6203837128707064,-0.000012045114454804721,875.0072157804075) "
               id="g182">
                <g stroke="null" id="g184" clip-path="url(#clipPath188)">
                    <path stroke="null" fill="#ffffff" fill-rule="evenodd"
                          d="m352.483986,370.896044l-12.94,-11.31l-65.91,75.41c-2.85,3.26 -2.52,8.22 0.75,11.07l12.94,11.32l65.91,-75.41c2.85,-3.27 2.52,-8.22 -0.75,-11.08z"
                          id="path190"/>
                </g>
            </g>
            <g stroke="null"
               transform="matrix(1.6203837128707064,0,0,-1.6203837128707064,-0.000012045114454804721,875.0072157804075) "
               id="g192">
                <g stroke="null" id="g194" clip-path="url(#clipPath198)">
                    <path stroke="#ffffff" fill="none" stroke-miterlimit="10"
                          d="m352.483986,370.896044l-12.94,-11.31l-65.91,75.41c-2.85,3.26 -2.52,8.22 0.75,11.07l12.94,11.32l65.91,-75.41c2.85,-3.27 2.52,-8.22 -0.75,-11.08z"
                          id="path200"/>
                </g>
            </g>
            <g stroke="null"
               transform="matrix(1.6203837128707064,0,0,-1.6203837128707064,-0.000012045114454804721,875.0072157804075) "
               id="g202">
                <g stroke="null" id="g204" clip-path="url(#clipPath208)">
                    <path stroke="#252a39" fill="none" stroke-width="4.5" stroke-miterlimit="10"
                          d="m340.263986,377.786044l-55.6,63.61" id="path210"/>
                </g>
            </g>
        </g>
    </g>
</svg>